<mxfile host="app.diagrams.net" modified="2024-07-09T21:55:11.302Z" agent="Mozilla/5.0 (Windows NT 10.0; Win64; x64) AppleWebKit/537.36 (KHTML, like Gecko) Chrome/126.0.0.0 Safari/537.36" etag="LMHdOzinOBgXBdhiPxxt" version="24.6.4" type="github">
  <diagram name="Page-1" id="7ob6OuUteb3VJgfA74sp">
    <mxGraphModel dx="1050" dy="557" grid="1" gridSize="10" guides="1" tooltips="1" connect="1" arrows="1" fold="1" page="1" pageScale="1" pageWidth="850" pageHeight="1100" math="0" shadow="0">
      <root>
        <mxCell id="0" />
        <mxCell id="1" parent="0" />
        <mxCell id="fhpdnfmEwBMncj6bYM0b-3" value="" style="edgeStyle=orthogonalEdgeStyle;rounded=0;orthogonalLoop=1;jettySize=auto;html=1;" edge="1" parent="1" source="fhpdnfmEwBMncj6bYM0b-1" target="fhpdnfmEwBMncj6bYM0b-2">
          <mxGeometry relative="1" as="geometry" />
        </mxCell>
        <mxCell id="fhpdnfmEwBMncj6bYM0b-1" value="Recorded voice&lt;div&gt;&lt;br&gt;&lt;/div&gt;" style="ellipse;shape=cloud;whiteSpace=wrap;html=1;" vertex="1" parent="1">
          <mxGeometry x="230" y="70" width="120" height="80" as="geometry" />
        </mxCell>
        <mxCell id="fhpdnfmEwBMncj6bYM0b-5" value="" style="edgeStyle=orthogonalEdgeStyle;rounded=0;orthogonalLoop=1;jettySize=auto;html=1;" edge="1" parent="1" source="fhpdnfmEwBMncj6bYM0b-2" target="fhpdnfmEwBMncj6bYM0b-4">
          <mxGeometry relative="1" as="geometry" />
        </mxCell>
        <mxCell id="fhpdnfmEwBMncj6bYM0b-2" value="recording.wav" style="whiteSpace=wrap;html=1;" vertex="1" parent="1">
          <mxGeometry x="230" y="270" width="120" height="60" as="geometry" />
        </mxCell>
        <mxCell id="fhpdnfmEwBMncj6bYM0b-7" value="" style="edgeStyle=orthogonalEdgeStyle;rounded=0;orthogonalLoop=1;jettySize=auto;html=1;" edge="1" parent="1" source="fhpdnfmEwBMncj6bYM0b-4" target="fhpdnfmEwBMncj6bYM0b-6">
          <mxGeometry relative="1" as="geometry" />
        </mxCell>
        <mxCell id="fhpdnfmEwBMncj6bYM0b-4" value="Deepgram Transcribe" style="shape=process;whiteSpace=wrap;html=1;backgroundOutline=1;" vertex="1" parent="1">
          <mxGeometry x="230" y="410" width="120" height="60" as="geometry" />
        </mxCell>
        <mxCell id="fhpdnfmEwBMncj6bYM0b-9" value="" style="edgeStyle=orthogonalEdgeStyle;rounded=0;orthogonalLoop=1;jettySize=auto;html=1;" edge="1" parent="1" source="fhpdnfmEwBMncj6bYM0b-6" target="fhpdnfmEwBMncj6bYM0b-8">
          <mxGeometry relative="1" as="geometry" />
        </mxCell>
        <mxCell id="fhpdnfmEwBMncj6bYM0b-6" value="Gemini with Prompt for response" style="shape=process;whiteSpace=wrap;html=1;backgroundOutline=1;" vertex="1" parent="1">
          <mxGeometry x="430" y="410" width="120" height="60" as="geometry" />
        </mxCell>
        <mxCell id="fhpdnfmEwBMncj6bYM0b-10" style="edgeStyle=orthogonalEdgeStyle;rounded=0;orthogonalLoop=1;jettySize=auto;html=1;entryX=0.96;entryY=0.7;entryDx=0;entryDy=0;entryPerimeter=0;exitX=0.567;exitY=-0.03;exitDx=0;exitDy=0;exitPerimeter=0;" edge="1" parent="1" source="fhpdnfmEwBMncj6bYM0b-8" target="fhpdnfmEwBMncj6bYM0b-1">
          <mxGeometry relative="1" as="geometry">
            <mxPoint x="530" y="220" as="sourcePoint" />
            <mxPoint x="390" y="100" as="targetPoint" />
            <Array as="points">
              <mxPoint x="490" y="268" />
              <mxPoint x="490" y="156" />
            </Array>
          </mxGeometry>
        </mxCell>
        <mxCell id="fhpdnfmEwBMncj6bYM0b-8" value="Play Response using Deepgram" style="whiteSpace=wrap;html=1;" vertex="1" parent="1">
          <mxGeometry x="430" y="270" width="120" height="60" as="geometry" />
        </mxCell>
        <mxCell id="fhpdnfmEwBMncj6bYM0b-11" value="https://github.com/ayushkumarshah/Guitar-Chords-recognition/blob/master/app.py" style="text;html=1;align=center;verticalAlign=middle;resizable=0;points=[];autosize=1;strokeColor=none;fillColor=none;" vertex="1" parent="1">
          <mxGeometry x="90" y="30" width="460" height="30" as="geometry" />
        </mxCell>
      </root>
    </mxGraphModel>
  </diagram>
</mxfile>
